<svg width="220" height="180" viewBox="20 20 220 180" fill="none" xmlns="http://www.w3.org/2000/svg">
<path d="M39.7143 65.644L162.342 10.1207C176.71 3.61525 192.603 15.524 190.395 31.1407L173.542 150.308C171.536 164.493 155.704 172.031 143.428 164.645L37.6525 101.001C23.8409 92.6903 25.0304 72.2926 39.7143 65.644Z" fill="white"/>
<g clip-path="url(#clip0)">
<path d="M125.928 116.935C127.137 116.499 128.464 116.528 129.653 117.017C130.841 117.505 131.806 118.418 132.359 119.578C132.912 120.737 133.015 122.061 132.646 123.292C132.278 124.523 131.466 125.573 130.366 126.239C129.489 126.768 128.474 127.025 127.45 126.977C126.427 126.929 125.44 126.577 124.617 125.967C123.873 125.408 123.293 124.659 122.938 123.799C122.583 122.938 122.467 121.998 122.601 121.077C122.736 120.156 123.116 119.289 123.701 118.565C124.287 117.842 125.057 117.29 125.93 116.967L125.928 116.935Z" fill="#FF005F"/>
<path d="M156.554 95.2297C161.93 94.8999 166.021 90.2742 165.692 84.8979C165.362 79.5216 160.736 75.4305 155.36 75.7603C149.983 76.0901 145.892 80.7158 146.222 86.0921C146.552 91.4684 151.178 95.5594 156.554 95.2297Z" fill="#FF005F"/>
<path d="M155.186 75.6975C156.446 75.2464 157.791 75.0803 159.123 75.2112C160.456 75.3421 161.743 75.7667 162.891 76.4545C164.04 77.1424 165.021 78.0763 165.766 79.189C166.51 80.3018 166.999 81.5657 167.196 82.8899C167.393 84.214 167.294 85.5654 166.907 86.8469C166.519 88.1283 165.852 89.3079 164.954 90.3007C164.056 91.2935 162.949 92.0748 161.713 92.5885C160.476 93.1021 159.142 93.3353 157.804 93.2712C155.711 93.1709 153.716 92.3474 152.162 90.9411C150.607 89.5348 149.589 87.6328 149.28 85.5595C148.971 83.4862 149.391 81.3699 150.468 79.5715C151.545 77.7731 153.212 76.4039 155.186 75.6975V75.6975Z" stroke="black" stroke-width="2" stroke-linecap="round" stroke-linejoin="round"/>
<path d="M127.858 115.089C128.819 114.73 129.866 114.665 130.863 114.904C131.86 115.144 132.76 115.68 133.447 116.441C134.14 117.195 134.593 118.138 134.748 119.15C134.902 120.165 134.75 121.203 134.314 122.132C133.877 123.061 133.175 123.839 132.295 124.369C131.417 124.895 130.403 125.149 129.38 125.099C128.355 125.055 127.367 124.703 126.545 124.089C125.801 123.53 125.221 122.781 124.866 121.921C124.512 121.06 124.395 120.12 124.53 119.199C124.664 118.278 125.044 117.41 125.63 116.687C126.215 115.964 126.985 115.412 127.858 115.089V115.089Z" stroke="black" stroke-width="2" stroke-linecap="round" stroke-linejoin="round"/>
<path d="M149.066 83.4108L117.885 79.2822" stroke="black" stroke-width="2" stroke-linecap="round" stroke-linejoin="round"/>
<path d="M152.801 91.6884L132.841 115.415" stroke="black" stroke-width="2" stroke-linecap="round" stroke-linejoin="round"/>
<path d="M85.8399 46.2502C91.7106 45.8129 97.5786 47.1313 102.698 50.0378C107.817 52.9442 111.957 57.3074 114.59 62.5726C117.223 67.8378 118.231 73.7671 117.485 79.6065C116.74 85.446 114.275 90.9319 110.403 95.3667C106.532 99.8015 101.429 102.985 95.7436 104.512C90.0582 106.039 84.0471 105.841 78.4747 103.943C72.9022 102.044 68.0201 98.532 64.4491 93.8519C60.878 89.1718 58.7795 83.5355 58.4202 77.6595C58.1576 73.7966 58.6586 69.9198 59.8946 66.2506C61.1305 62.5814 63.0772 59.1915 65.6235 56.2748C68.1697 53.358 71.2657 50.9715 74.7345 49.2514C78.2033 47.5314 81.9769 46.5116 85.8399 46.2502Z" stroke="black" stroke-width="2" stroke-linecap="round" stroke-linejoin="round"/>
<path d="M90.3482 113.537C82.5107 114.022 74.717 112.051 68.0522 107.898C61.3873 103.746 56.1829 97.6193 53.1633 90.3706C50.1437 83.1218 49.4594 75.112 51.2054 67.4561C52.9514 59.8002 57.041 52.8791 62.9048 47.6564" stroke="black" stroke-width="2" stroke-linecap="round" stroke-linejoin="round"/>
<path d="M124.664 85.087C123.227 90.7419 120.503 95.9888 116.706 100.419C112.909 104.849 108.14 108.342 102.771 110.627" stroke="black" stroke-width="2" stroke-linecap="round" stroke-linejoin="round"/>
<path d="M85.724 38.1484C95.7212 37.5352 105.553 40.9185 113.055 47.554C120.558 54.1895 125.118 63.5337 125.731 73.5309" stroke="black" stroke-width="2" stroke-linecap="round" stroke-linejoin="round"/>
<path d="M130.239 129.968C135.771 129.629 139.981 124.869 139.642 119.336C139.302 113.804 134.542 109.594 129.01 109.933C123.477 110.273 119.267 115.033 119.607 120.565C119.946 126.098 124.706 130.308 130.239 129.968Z" stroke="black" stroke-width="2" stroke-linecap="round" stroke-linejoin="round"/>
</g>
<defs>
<clipPath id="clip0">
<rect width="118.007" height="96" fill="white" transform="translate(47.172 39.7021) rotate(-3.51)"/>
</clipPath>
</defs>
</svg>
