<svg width="220" height="180" viewBox="20 20 220 180" fill="none" xmlns="http://www.w3.org/2000/svg">
<path d="M39.7143 65.644L162.342 10.1207C176.71 3.61525 192.603 15.524 190.395 31.1407L173.542 150.308C171.536 164.493 155.704 172.031 143.428 164.645L37.6525 101.001C23.8409 92.6903 25.0304 72.2926 39.7143 65.644Z" fill="black"/>
<g clip-path="url(#clip0)">
<path d="M91.1971 84.4673C91.2408 85.1797 95.3786 92.9428 92.7582 93.7114C92.7582 93.7114 79.4264 88.0928 79.6397 86.5564C79.853 85.0201 92.9869 84.2645 92.9869 84.2645L91.1971 84.4673Z" fill="#FF005F"/>
<path d="M74.2041 78.3864C74.1891 77.4544 74.0164 76.5317 73.6934 75.6573C72.7155 73.4717 70.6121 73.4577 67.0641 75.077C63.5162 76.6963 58.2311 75.061 57.8719 69.2045C57.5126 63.348 63.8287 61.3873 69.3235 63.8751C74.516 66.2169 74.5627 62.4309 74.5627 62.4309C74.335 54.1706 72.37 42.6557 72.37 42.6557C72.37 42.6557 89.0684 40.2011 90.6662 41.5334C93.4709 43.8859 90.0196 46.9653 90.1363 51.199C90.2529 55.4327 99.0393 59.2347 101.768 53.3461C104.496 47.4576 97.0517 44.2026 101.022 41.1914C102.628 39.9701 118.894 40.0379 118.894 40.0379C118.894 40.0379 119.162 58.1649 120.132 60.2079C121.101 62.251 123.717 61.5327 128.375 59.7023C133.033 57.8719 135.932 61.7633 135.954 66.6679C135.975 71.5724 131.956 72.3839 125.284 71.1126C118.613 69.8412 119.738 73.9701 120.179 79.2923C120.62 84.6146 121.843 92.6494 121.843 92.6494C121.843 92.6494 109.219 94.854 105.685 94.3557C102.15 93.8573 103.977 89.8334 104.484 86.434C104.99 83.0345 102.834 77.8461 97.9378 78.0034C96.6358 78.0303 95.3626 78.3916 94.2405 79.0526" fill="#FF005F"/>
<path d="M92.9869 84.2646C93.0741 84.9903 93.2596 85.7007 93.5384 86.3763C94.9467 89.8656 96.4554 92.7767 93.8329 93.5097" stroke="white" stroke-width="2" stroke-linecap="round" stroke-linejoin="round"/>
<path d="M75.9501 77.4711C75.9393 76.5363 75.7664 75.6105 75.439 74.7348C74.4615 72.5564 72.3581 72.5424 68.8173 74.1612C65.2765 75.7801 59.9771 74.1457 59.6179 68.2892C59.2587 62.4327 65.5752 60.4791 71.0695 62.9597C76.2626 65.3087 76.3088 61.5156 76.3088 61.5156C76.0814 53.2624 74.1165 41.7475 74.1165 41.7475C74.1165 41.7475 90.822 39.2925 92.4127 40.6252C95.2245 42.9772 91.7661 46.0571 91.8828 50.2908C91.9994 54.5244 100.793 58.326 103.514 52.4379C106.235 46.5498 98.7986 43.3015 102.769 40.2903C104.375 39.069 120.641 39.1297 120.641 39.1297C120.641 39.1297 120.941 57.1975 121.877 59.2855C122.813 61.3735 125.463 60.6103 130.12 58.7799C134.778 56.9494 137.677 60.8408 137.699 65.7454C137.721 70.65 133.702 71.4615 127.037 70.1825C120.372 68.9036 121.491 73.0472 121.925 78.3628C122.358 83.6783 123.588 91.7198 123.588 91.7198C123.588 91.7198 110.965 93.9244 107.43 93.4261C103.895 92.9278 105.722 88.9038 106.229 85.5115C106.736 82.1192 104.579 76.9165 99.6835 77.0809C98.3836 77.1071 97.1125 77.4683 95.9933 78.1297" stroke="white" stroke-width="2" stroke-linecap="round" stroke-linejoin="round"/>
<path d="M49.04 88.2115C57.7088 85.0837 57.7408 82.8076 66.9283 79.741C76.1159 76.6745 94.242 77.0931 95.5255 77.6151C95.6894 77.6901 95.8284 77.8107 95.9258 77.9624C96.71 79.0871 96.245 82.2337 94.606 83.3784C92.7389 84.6514 79.7815 85.718 79.6398 86.5562C79.4981 87.3945 89.1537 93.4746 94.1491 93.8833C99.1444 94.2921 100.466 94.0394 100.466 94.0394C100.466 94.0394 98.6668 100.379 96.3732 101.578C94.0796 102.777 87.3312 102.354 86.7443 102.812C86.1573 103.27 85.0553 107.922 82.1909 108.326C80.6944 108.571 79.1793 108.683 77.6631 108.661C77.6631 108.661 77.114 111.37 72.1769 111.443C62.5889 111.595 60.3451 109.409 48.9321 107.906" stroke="white" stroke-width="2" stroke-linecap="round" stroke-linejoin="round"/>
<path d="M182.86 112.371C177.298 105.053 171.334 103.652 165.657 99.0161C159.98 94.3797 157.578 94.5056 155.05 96.5415C152.521 98.5774 161.641 104.669 163.081 108.55C164.52 112.43 154.163 114.739 143.78 114.74C133.565 114.701 124.287 112.445 120.581 115.219C119.212 116.225 119.528 119.746 119.528 119.746C119.528 119.746 132.958 123.342 144.956 123.657C156.954 123.972 170.972 126.209 180.996 129.313" stroke="white" stroke-width="2" stroke-linecap="round" stroke-linejoin="round"/>
<path d="M123.195 113.878C123.195 113.878 123.36 110.857 126.055 110.842C128.75 110.827 137.168 114.451 137.168 114.451" stroke="white" stroke-width="2" stroke-linecap="round" stroke-linejoin="round"/>
<path d="M149.713 114.469C149.713 114.469 134.661 107.847 132.637 107.971C130.614 108.095 128.548 111.254 128.548 111.254" stroke="white" stroke-width="2" stroke-linecap="round" stroke-linejoin="round"/>
<path d="M157.79 113.122L142.144 106.852C141.403 106.569 140.583 106.568 139.841 106.85C138.858 107.398 138.031 108.187 137.436 109.143" stroke="white" stroke-width="2" stroke-linecap="round" stroke-linejoin="round"/>
</g>
<defs>
<clipPath id="clip0">
<rect width="134.838" height="96" fill="black" transform="translate(44.1877 42.2178) rotate(-3.51)"/>
</clipPath>
</defs>
</svg>
